<svg width="1200" height="1200" xmlns="http://www.w3.org/2000/svg" xmlns:xlink="http://www.w3.org/1999/xlink" version="1.1"><g transform="scale(19.85912229735915) translate(3.021281560262044, 5.772815068562828)">                        <g fill="#ff750f">    <title xmlns="http://www.w3.org/2000/svg">Asset 76LETTERS1</title>    <g xmlns="http://www.w3.org/2000/svg" id="Page-1" stroke-width="1" fill-rule="evenodd">        <g id="Artboard" transform="translate(-5274.000000, -53.000000)">            <g id="Asset-76LETTERS1" transform="translate(5274.000000, 53.020000)">                <path d="M35.6231457,3.29 C35.2131457,2.22 34.1631457,1.5 33.0131457,1.5 L22.1731457,1.5 L39.3831457,46.34 L51.2731457,46.34 C51.4731457,46.34 51.6531457,46.25 51.7631457,46.08 C51.8731457,45.91 51.9031457,45.72 51.8331457,45.53 L35.6231457,3.29 Z" id="Path" stroke="none"/>                <path d="M53.2331457,44.99 L37.0231457,2.76 C36.3931457,1.11 34.7831457,0 33.0131457,0 L19.5931457,0 C18.1231457,0 16.7831457,0.92 16.2631457,2.29 L8.34314565,22.93 C8.12314565,23.49 8.20314565,24.12 8.54314565,24.62 C8.88314565,25.12 9.44314565,25.41 10.0531457,25.41 L22.6231457,25.41 L26.1731457,16.07 L37.7931457,46.33 L37.1131457,46.33 C36.4331457,46.33 35.8031457,45.9 35.5631457,45.26 L29.8131457,30.29 C28.8831457,27.88 26.5231457,26.25 23.9431457,26.25 L11.4431457,26.25 C8.78314565,26.25 6.36314565,27.92 5.42314565,30.4 L0.173145651,44.2 C-0.136854349,45.03 -0.0268543489,45.95 0.473145651,46.68 C0.973145651,47.41 1.80314565,47.84 2.68314565,47.84 L14.0131457,47.84 L21.7131457,27.77 L23.9331457,27.77 C25.9031457,27.77 27.7031457,29.01 28.4031457,30.84 L34.1531457,45.81 C34.6231457,47.02 35.8031457,47.84 37.1031457,47.84 L51.2831457,47.84 C51.9731457,47.84 52.6231457,47.5 53.0131457,46.93 C53.4031457,46.36 53.4931457,45.64 53.2431457,44.99 L53.2331457,44.99 Z M51.7731457,46.08 C51.6531457,46.25 51.4831457,46.34 51.2831457,46.34 L39.3931457,46.34 L22.1831457,1.5 L33.0231457,1.5 C34.1731457,1.5 35.2231457,2.22 35.6331457,3.29 L51.8431457,45.53 C51.9131457,45.72 51.8931457,45.91 51.7731457,46.08 Z" id="Shape" fill-rule="nonzero" stroke="none"/>            </g>        </g>    </g></g>        </g></svg>